999
"DXF R12 Output" (www.mydxf.blogspot.com)
 0 
SECTION
 2 
HEADER
 9 
$ACADVER
 1 
AC1009
 9 
$EXTMIN
 10 
 0 
 20 
 0 
 9 
$EXTMAX
 10 
 8.5 
 20 
 11 
 0 
ENDSEC
 0 
SECTION
 2 
ENTITIES
0
LINE
8
Layer 1
10
0.793749
20
1000.793749
11
-0.793749
21
999.206251
0
LINE
8
Layer 1
10
0.000000
20
1001.322915
11
0.000000
21
998.677085
0
LINE
8
Layer 1
10
2.116664
20
998.941668
11
1.058332
21
997.883336
0
LINE
8
Layer 1
10
1.587498
20
999.470834
11
0.529166
21
998.412502
0
LINE
8
Layer 1
10
1.058332
20
1000.000000
11
0.000000
21
998.941668
0
LINE
8
1
10
151.381682
20
921.701754
11
146.666548
21
921.701754
0
LINE
8
1
10
146.576580
20
921.791792
11
146.666577
21
921.701791
0
LINE
8
1
10
146.576590
20
921.791713
11
146.576590
21
924.501836
0
LINE
8
1
10
146.576590
20
924.501836
11
138.752606
21
924.501836
0
LINE
8
1
10
138.662590
20
924.591787
11
138.752588
21
924.501789
0
LINE
8
1
10
138.662648
20
924.591794
11
138.662648
21
930.035854
0
LINE
8
1
10
138.662648
20
930.035854
11
135.952524
21
930.035854
0
LINE
8
1
10
135.862593
20
930.125781
11
135.888953
21
930.062141
0
LINE
8
1
10
135.888953
20
930.062141
11
135.952593
21
930.035780
0
LINE
8
1
10
135.862566
20
930.125813
11
135.862566
21
938.458854
0
LINE
8
1
10
135.952593
20
938.548770
11
135.888953
21
938.522410
0
LINE
8
1
10
135.888953
20
938.522410
11
135.862593
21
938.458769
0
LINE
8
1
10
135.952524
20
938.548812
11
138.662648
21
938.548812
0
LINE
8
1
10
138.662648
20
938.548812
11
138.662648
21
946.791631
0
LINE
8
1
10
138.752588
20
946.881759
11
138.662590
21
946.791761
0
LINE
8
1
10
138.752606
20
946.881854
11
208.152463
21
946.881854
0
LINE
8
1
10
208.242500
20
946.791761
11
208.152502
21
946.881759
0
LINE
8
1
10
208.242421
20
946.791631
11
208.242421
21
938.548812
0
LINE
8
1
10
208.242421
20
938.548812
11
210.952544
21
938.548812
0
LINE
8
1
10
211.042497
20
938.458769
11
211.016137
21
938.522410
0
LINE
8
1
10
211.016137
20
938.522410
11
210.952497
21
938.548770
0
LINE
8
1
10
211.042503
20
938.458854
11
211.042503
21
930.125813
0
LINE
8
1
10
210.952497
20
930.035780
11
211.016137
21
930.062141
0
LINE
8
1
10
211.016137
20
930.062141
11
211.042497
21
930.125781
0
LINE
8
1
10
210.952544
20
930.035854
11
208.242421
21
930.035854
0
LINE
8
1
10
208.242421
20
930.035854
11
208.242421
21
924.591794
0
LINE
8
1
10
208.152502
20
924.501789
11
208.242500
21
924.591787
0
LINE
8
1
10
208.152463
20
924.501836
11
200.328479
21
924.501836
0
LINE
8
1
10
200.328479
20
924.501836
11
200.328479
21
921.791713
0
LINE
8
1
10
200.238510
20
921.701791
11
200.302150
21
921.728152
0
LINE
8
1
10
200.302150
20
921.728152
11
200.328510
21
921.791792
0
LINE
8
1
10
200.238520
20
921.701754
11
189.523438
21
921.701754
0
LINE
8
1
10
189.433525
20
921.791792
11
189.459885
21
921.728152
0
LINE
8
1
10
189.459885
20
921.728152
11
189.523525
21
921.701791
0
LINE
8
1
10
189.434538
20
921.791713
11
189.434538
21
924.501836
0
LINE
8
1
10
189.434538
20
924.501836
11
178.899637
21
924.501836
0
LINE
8
1
10
178.899637
20
924.501836
11
178.899637
21
921.791713
0
LINE
8
1
10
178.809538
20
921.701791
11
178.873179
21
921.728152
0
LINE
8
1
10
178.873179
20
921.728152
11
178.899539
21
921.791792
0
LINE
8
1
10
178.809414
20
921.701754
11
168.095655
21
921.701754
0
LINE
8
1
10
168.005551
20
921.791792
11
168.031911
21
921.728152
0
LINE
8
1
10
168.031911
20
921.728152
11
168.095552
21
921.701791
0
LINE
8
1
10
168.005432
20
921.791713
11
168.005432
21
924.501836
0
LINE
8
1
10
168.005432
20
924.501836
11
157.471589
21
924.501836
0
LINE
8
1
10
157.471589
20
924.501836
11
157.471589
21
921.791713
0
LINE
8
1
10
157.381565
20
921.701791
11
157.445205
21
921.728152
0
LINE
8
1
10
157.445205
20
921.728152
11
157.471565
21
921.791792
0
LINE
8
1
10
157.381631
20
921.701754
11
151.381682
21
921.701754
0
LINE
8
1
10
151.262620
20
905.986583
11
149.642578
21
905.986583
0
LINE
8
1
10
149.642578
20
905.986583
11
149.642578
21
895.453533
0
LINE
8
1
10
149.642578
20
895.453533
11
152.262479
21
895.453533
0
LINE
8
1
10
152.262479
20
895.453533
11
152.262479
21
905.986583
0
LINE
8
1
10
152.262479
20
905.986583
11
151.262620
21
905.986583
0
LINE
8
1
10
151.262620
20
884.560651
11
149.642578
21
884.560651
0
LINE
8
1
10
149.642578
20
884.560651
11
149.642578
21
874.024956
0
LINE
8
1
10
149.642578
20
874.024956
11
152.262479
21
874.024956
0
LINE
8
1
10
152.262479
20
874.024956
11
152.262479
21
884.560651
0
LINE
8
1
10
152.262479
20
884.560651
11
151.262620
21
884.560651
0
LINE
8
1
10
149.642578
20
862.952158
11
149.642578
21
852.596379
0
LINE
8
1
10
149.642578
20
852.596379
11
152.262479
21
852.596379
0
LINE
8
1
10
152.262479
20
852.596379
11
152.262479
21
863.132074
0
LINE
8
1
10
152.262479
20
863.132074
11
149.642578
21
863.132074
0
LINE
8
1
10
149.642578
20
863.132074
11
149.642578
21
862.952158
0
LINE
8
1
10
92.544641
20
916.881846
11
99.816651
21
916.881846
0
LINE
8
1
10
99.906636
20
916.791798
11
99.816638
21
916.881798
0
LINE
8
1
10
99.906636
20
916.791888
11
99.906636
21
914.081764
0
LINE
8
1
10
99.906636
20
914.081764
11
111.089633
21
914.081764
0
LINE
8
1
10
111.089633
20
914.081764
11
111.089633
21
916.791888
0
LINE
8
1
10
111.179623
20
916.881798
11
111.115983
21
916.855438
0
LINE
8
1
10
111.115983
20
916.855438
11
111.089623
21
916.791798
0
LINE
8
1
10
111.179618
20
916.881846
11
122.543617
21
916.881846
0
LINE
8
1
10
122.633609
20
916.791798
11
122.607249
21
916.855438
0
LINE
8
1
10
122.607249
20
916.855438
11
122.543609
21
916.881798
0
LINE
8
1
10
122.633601
20
916.791888
11
122.633601
21
914.081764
0
LINE
8
1
10
122.633601
20
914.081764
11
133.817604
21
914.081764
0
LINE
8
1
10
133.817604
20
914.081764
11
133.817604
21
916.791888
0
LINE
8
1
10
133.907594
20
916.881798
11
133.843954
21
916.855438
0
LINE
8
1
10
133.843954
20
916.855438
11
133.817594
21
916.791798
0
LINE
8
1
10
133.907589
20
916.881846
11
145.270608
21
916.881846
0
LINE
8
1
10
145.360580
20
916.791798
11
145.334220
21
916.855438
0
LINE
8
1
10
145.334220
20
916.855438
11
145.270579
21
916.881798
0
LINE
8
1
10
145.360567
20
916.791888
11
145.360567
21
914.081764
0
LINE
8
1
10
145.360567
20
914.081764
11
156.544490
21
914.081764
0
LINE
8
1
10
156.544490
20
914.081764
11
156.544490
21
916.791888
0
LINE
8
1
10
156.634565
20
916.881798
11
156.544567
21
916.791798
0
LINE
8
1
10
156.634448
20
916.881846
11
167.997494
21
916.881846
0
LINE
8
1
10
168.087551
20
916.791798
11
167.997553
21
916.881798
0
LINE
8
1
10
168.087453
20
916.791888
11
168.087453
21
914.081764
0
LINE
8
1
10
168.087453
20
914.081764
11
179.271641
21
914.081764
0
LINE
8
1
10
179.271641
20
914.081764
11
179.271641
21
916.791888
0
LINE
8
1
10
179.361538
20
916.881798
11
179.297898
21
916.855438
0
LINE
8
1
10
179.297898
20
916.855438
11
179.271537
21
916.791798
0
LINE
8
1
10
179.361599
20
916.881846
11
190.725439
21
916.881846
0
LINE
8
1
10
190.815524
20
916.791798
11
190.789164
21
916.855438
0
LINE
8
1
10
190.789164
20
916.855438
11
190.725523
21
916.881798
0
LINE
8
1
10
190.815397
20
916.791888
11
190.815397
21
914.081764
0
LINE
8
1
10
190.815397
20
914.081764
11
201.998527
21
914.081764
0
LINE
8
1
10
201.998527
20
914.081764
11
201.998527
21
916.791888
0
LINE
8
1
10
202.088509
20
916.881798
11
202.024868
21
916.855438
0
LINE
8
1
10
202.024868
20
916.855438
11
201.998508
21
916.791798
0
LINE
8
1
10
202.088485
20
916.881846
11
213.452589
21
916.881846
0
LINE
8
1
10
213.542495
20
916.791798
11
213.516134
21
916.855438
0
LINE
8
1
10
213.516134
20
916.855438
11
213.452494
21
916.881798
0
LINE
8
1
10
213.542547
20
916.791888
11
213.542547
21
906.076541
0
LINE
8
1
10
213.452494
20
905.987810
11
213.516134
21
906.014170
0
LINE
8
1
10
213.516134
20
906.014170
11
213.542495
21
906.077811
0
LINE
8
1
10
213.452589
20
905.986583
11
210.742466
21
905.986583
0
LINE
8
1
10
210.742466
20
905.986583
11
210.742466
21
895.453533
0
LINE
8
1
10
210.742466
20
895.453533
11
213.452589
21
895.453533
0
LINE
8
1
10
213.542495
20
895.363824
11
213.516134
21
895.427464
0
LINE
8
1
10
213.516134
20
895.427464
11
213.452494
21
895.453824
0
LINE
8
1
10
213.542547
20
895.363575
11
213.542547
21
884.650609
0
LINE
8
1
10
213.452494
20
884.559839
11
213.516134
21
884.586199
0
LINE
8
1
10
213.516134
20
884.586199
11
213.542495
21
884.649839
0
LINE
8
1
10
213.452589
20
884.560651
11
210.742466
21
884.560651
0
LINE
8
1
10
210.742466
20
884.560651
11
210.742466
21
874.024956
0
LINE
8
1
10
210.742466
20
874.024956
11
213.452589
21
874.024956
0
LINE
8
1
10
213.542495
20
873.934852
11
213.452494
21
874.024850
0
LINE
8
1
10
213.542547
20
873.934998
11
213.542547
21
863.222032
0
LINE
8
1
10
213.452494
20
863.130865
11
213.516134
21
863.157225
0
LINE
8
1
10
213.516134
20
863.157225
11
213.542495
21
863.220865
0
LINE
8
1
10
213.452589
20
863.132074
11
210.742466
21
863.132074
0
LINE
8
1
10
210.742466
20
863.132074
11
210.742466
21
852.596379
0
LINE
8
1
10
210.742466
20
852.596379
11
213.452589
21
852.596379
0
LINE
8
1
10
213.542495
20
852.506878
11
213.516134
21
852.570519
0
LINE
8
1
10
213.516134
20
852.570519
11
213.452494
21
852.596879
0
LINE
8
1
10
213.542547
20
852.506421
11
213.542547
21
841.790809
0
LINE
8
1
10
213.452494
20
841.701893
11
213.542495
21
841.791891
0
LINE
8
1
10
213.452589
20
841.700851
11
202.088485
21
841.700851
0
LINE
8
1
10
201.998508
20
841.791891
11
202.088509
21
841.701893
0
LINE
8
1
10
201.998527
20
841.790809
11
201.998527
21
844.502785
0
LINE
8
1
10
201.998527
20
844.502785
11
190.815397
21
844.502785
0
LINE
8
1
10
190.815397
20
844.502785
11
190.815397
21
841.790809
0
LINE
8
1
10
190.725523
20
841.701893
11
190.815524
21
841.791891
0
LINE
8
1
10
190.725439
20
841.700851
11
179.361599
21
841.700851
0
LINE
8
1
10
179.271537
20
841.791891
11
179.361538
21
841.701893
0
LINE
8
1
10
179.271641
20
841.790809
11
179.271641
21
844.502785
0
LINE
8
1
10
179.271641
20
844.502785
11
168.087453
21
844.502785
0
LINE
8
1
10
168.087453
20
844.502785
11
168.087453
21
841.790809
0
LINE
8
1
10
167.997553
20
841.701893
11
168.087551
21
841.791891
0
LINE
8
1
10
167.997494
20
841.700851
11
156.634448
21
841.700851
0
LINE
8
1
10
156.544567
20
841.791891
11
156.634565
21
841.701893
0
LINE
8
1
10
156.544490
20
841.790809
11
156.544490
21
844.502785
0
LINE
8
1
10
156.544490
20
844.502785
11
145.360567
21
844.502785
0
LINE
8
1
10
145.360567
20
844.502785
11
145.360567
21
841.790809
0
LINE
8
1
10
145.270579
20
841.701893
11
145.360580
21
841.791891
0
LINE
8
1
10
145.270608
20
841.700851
11
133.907589
21
841.700851
0
LINE
8
1
10
133.817594
20
841.791891
11
133.907594
21
841.701893
0
LINE
8
1
10
133.817604
20
841.790809
11
133.817604
21
844.502785
0
LINE
8
1
10
133.817604
20
844.502785
11
122.633601
21
844.502785
0
LINE
8
1
10
122.633601
20
844.502785
11
122.633601
21
841.790809
0
LINE
8
1
10
122.543609
20
841.701893
11
122.633609
21
841.791891
0
LINE
8
1
10
122.543617
20
841.700851
11
111.179618
21
841.700851
0
LINE
8
1
10
111.089623
20
841.791891
11
111.179623
21
841.701893
0
LINE
8
1
10
111.089633
20
841.790809
11
111.089633
21
844.502785
0
LINE
8
1
10
111.089633
20
844.502785
11
99.906636
21
844.502785
0
LINE
8
1
10
99.906636
20
844.502785
11
99.906636
21
841.790809
0
LINE
8
1
10
99.816638
20
841.701893
11
99.906636
21
841.791891
0
LINE
8
1
10
99.816651
20
841.700851
11
88.452653
21
841.700851
0
LINE
8
1
10
88.362652
20
841.791891
11
88.452653
21
841.701893
0
LINE
8
1
10
88.362642
20
841.790809
11
88.362642
21
852.506421
0
LINE
8
1
10
88.452653
20
852.596879
11
88.389013
21
852.570519
0
LINE
8
1
10
88.389013
20
852.570519
11
88.362652
21
852.506878
0
LINE
8
1
10
88.452653
20
852.596379
11
91.162644
21
852.596379
0
LINE
8
1
10
91.162644
20
852.596379
11
91.162644
21
863.132074
0
LINE
8
1
10
91.162644
20
863.132074
11
88.452653
21
863.132074
0
LINE
8
1
10
88.362652
20
863.220865
11
88.389013
21
863.157225
0
LINE
8
1
10
88.389013
20
863.157225
11
88.452653
21
863.130865
0
LINE
8
1
10
88.362642
20
863.222032
11
88.362642
21
873.934998
0
LINE
8
1
10
88.452653
20
874.024850
11
88.362652
21
873.934852
0
LINE
8
1
10
88.452653
20
874.024956
11
91.162644
21
874.024956
0
LINE
8
1
10
91.162644
20
874.024956
11
91.162644
21
884.560651
0
LINE
8
1
10
91.162644
20
884.560651
11
88.452653
21
884.560651
0
LINE
8
1
10
88.362652
20
884.649839
11
88.389013
21
884.586199
0
LINE
8
1
10
88.389013
20
884.586199
11
88.452653
21
884.559839
0
LINE
8
1
10
88.362642
20
884.650609
11
88.362642
21
895.363575
0
LINE
8
1
10
88.452653
20
895.453824
11
88.389013
21
895.427464
0
LINE
8
1
10
88.389013
20
895.427464
11
88.362652
21
895.363824
0
LINE
8
1
10
88.452653
20
895.453533
11
91.162644
21
895.453533
0
LINE
8
1
10
91.162644
20
895.453533
11
91.162644
21
905.986583
0
LINE
8
1
10
91.162644
20
905.986583
11
88.452653
21
905.986583
0
LINE
8
1
10
88.362652
20
906.077811
11
88.389013
21
906.014170
0
LINE
8
1
10
88.389013
20
906.014170
11
88.452653
21
905.987810
0
LINE
8
1
10
88.362642
20
906.076541
11
88.362642
21
916.791888
0
LINE
8
1
10
88.452653
20
916.881798
11
88.389013
21
916.855438
0
LINE
8
1
10
88.389013
20
916.855438
11
88.362652
21
916.791798
0
LINE
8
1
10
88.452653
20
916.881846
11
92.544641
21
916.881846
0
LINE
8
1
10
65.274732
20
942.639795
11
65.274732
21
942.819711
0
LINE
8
1
10
65.274732
20
942.819711
11
62.654567
21
942.819711
0
LINE
8
1
10
62.654567
20
942.819711
11
62.654567
21
932.999713
0
LINE
8
1
10
62.654567
20
932.999713
11
65.274732
21
932.999713
0
LINE
8
1
10
65.274732
20
932.999713
11
65.274732
21
942.639795
0
LINE
8
1
10
65.274732
20
953.179723
11
65.274732
21
962.819805
0
LINE
8
1
10
65.274732
20
962.819805
11
62.654567
21
962.819805
0
LINE
8
1
10
62.654567
20
962.819805
11
62.654567
21
952.999807
0
LINE
8
1
10
62.654567
20
952.999807
11
65.274732
21
952.999807
0
LINE
8
1
10
65.274732
20
952.999807
11
65.274732
21
953.179723
0
LINE
8
1
10
69.736660
20
925.041850
11
69.736660
21
922.909840
0
LINE
8
1
10
69.646675
20
922.819790
11
69.710315
21
922.846150
0
LINE
8
1
10
69.710315
20
922.846150
11
69.736676
21
922.909790
0
LINE
8
1
10
69.646702
20
922.819882
11
58.282597
21
922.819882
0
LINE
8
1
10
58.192689
20
922.909790
11
58.219050
21
922.846150
0
LINE
8
1
10
58.219050
20
922.846150
11
58.282690
21
922.819790
0
LINE
8
1
10
58.192639
20
922.909840
11
58.192639
21
925.619699
0
LINE
8
1
10
58.192639
20
925.619699
11
47.009774
21
925.619699
0
LINE
8
1
10
47.009774
20
925.619699
11
47.009774
21
922.909840
0
LINE
8
1
10
46.919705
20
922.819790
11
46.983345
21
922.846150
0
LINE
8
1
10
46.983345
20
922.846150
11
47.009705
21
922.909790
0
LINE
8
1
10
46.919816
20
922.819882
11
35.555711
21
922.819882
0
LINE
8
1
10
35.465719
20
922.909790
11
35.492079
21
922.846150
0
LINE
8
1
10
35.492079
20
922.846150
11
35.555719
21
922.819790
0
LINE
8
1
10
35.465753
20
922.909840
11
35.465753
21
925.619699
0
LINE
8
1
10
35.465753
20
925.619699
11
24.281830
21
925.619699
0
LINE
8
1
10
24.281830
20
925.619699
11
24.281830
21
922.909840
0
LINE
8
1
10
24.191734
20
922.819790
11
24.255374
21
922.846150
0
LINE
8
1
10
24.255374
20
922.846150
11
24.281734
21
922.909790
0
LINE
8
1
10
24.191607
20
922.819882
11
12.828825
21
922.819882
0
LINE
8
1
10
12.738748
20
922.909790
11
12.765108
21
922.846150
0
LINE
8
1
10
12.765108
20
922.846150
11
12.828748
21
922.819790
0
LINE
8
1
10
12.738867
20
922.909840
11
12.738867
21
925.619699
0
LINE
8
1
10
12.738867
20
925.619699
11
1.464721
21
925.619699
0
LINE
8
1
10
1.374763
20
925.709787
11
1.401123
21
925.646147
0
LINE
8
1
10
1.401123
20
925.646147
11
1.464762
21
925.619787
0
LINE
8
1
10
1.374763
20
925.709658
11
1.374763
21
933.623864
0
LINE
8
1
10
1.464762
20
933.713778
11
1.401123
21
933.687417
0
LINE
8
1
10
1.401123
20
933.687417
11
1.374763
21
933.623777
0
LINE
8
1
10
1.464721
20
933.713823
11
4.174845
21
933.713823
0
LINE
8
1
10
4.174845
20
933.713823
11
4.174845
21
944.247666
0
LINE
8
1
10
4.174845
20
944.247666
11
1.464721
21
944.247666
0
LINE
8
1
10
1.374763
20
944.337764
11
1.401123
21
944.274124
0
LINE
8
1
10
1.401123
20
944.274124
11
1.464762
21
944.247763
0
LINE
8
1
10
1.374763
20
944.337888
11
1.374763
21
955.051648
0
LINE
8
1
10
1.464762
20
955.141749
11
1.401123
21
955.115388
0
LINE
8
1
10
1.401123
20
955.115388
11
1.374763
21
955.051748
0
LINE
8
1
10
1.464721
20
955.141871
11
4.174845
21
955.141871
0
LINE
8
1
10
4.174845
20
955.141871
11
4.174845
21
965.676772
0
LINE
8
1
10
4.174845
20
965.676772
11
1.464721
21
965.676772
0
LINE
8
1
10
1.374763
20
965.766735
11
1.401123
21
965.703095
0
LINE
8
1
10
1.401123
20
965.703095
11
1.464762
21
965.676735
0
LINE
8
1
10
1.374763
20
965.766730
11
1.374763
21
976.480754
0
LINE
8
1
10
1.464762
20
976.570724
11
1.401122
21
976.544363
0
LINE
8
1
10
1.401122
20
976.544363
11
1.374763
21
976.480722
0
LINE
8
1
10
1.464721
20
976.570713
11
4.174845
21
976.570713
0
LINE
8
1
10
4.174845
20
976.570713
11
4.174845
21
987.104821
0
LINE
8
1
10
4.174845
20
987.104821
11
1.464721
21
987.104821
0
LINE
8
1
10
1.374763
20
987.194710
11
1.401123
21
987.131070
0
LINE
8
1
10
1.401123
20
987.131070
11
1.464762
21
987.104710
0
LINE
8
1
10
1.374763
20
987.194779
11
1.374763
21
997.909597
0
LINE
8
1
10
1.498186
20
997.993261
11
1.414305
21
997.984223
0
LINE
8
1
10
1.414305
20
997.984223
11
1.374763
21
997.909697
0
LINE
8
1
10
1.497794
20
997.993734
11
126.497598
21
947.992838
0
LINE
8
1
10
126.554605
20
947.909759
11
126.498027
21
947.993322
0
LINE
8
1
10
126.554616
20
947.909759
11
126.554616
21
939.575659
0
LINE
8
1
10
126.464604
20
939.485770
11
126.528245
21
939.512130
0
LINE
8
1
10
126.528245
20
939.512130
11
126.554605
21
939.575770
0
LINE
8
1
10
126.464604
20
939.485701
11
123.754613
21
939.485701
0
LINE
8
1
10
123.754613
20
939.485701
11
123.754613
21
931.332840
0
LINE
8
1
10
123.754613
20
931.332840
11
126.464604
21
931.332840
0
LINE
8
1
10
126.554605
20
931.242779
11
126.528245
21
931.306419
0
LINE
8
1
10
126.528245
20
931.306419
11
126.464604
21
931.332779
0
LINE
8
1
10
126.554616
20
931.242882
11
126.554616
21
925.709658
0
LINE
8
1
10
126.464604
20
925.619787
11
126.528245
21
925.646147
0
LINE
8
1
10
126.528245
20
925.646147
11
126.554605
21
925.709787
0
LINE
8
1
10
126.464604
20
925.619699
11
115.190617
21
925.619699
0
LINE
8
1
10
115.190617
20
925.619699
11
115.190617
21
922.909840
0
LINE
8
1
10
115.100619
20
922.819790
11
115.190617
21
922.909790
0
LINE
8
1
10
115.100632
20
922.819882
11
103.737639
21
922.819882
0
LINE
8
1
10
103.647633
20
922.909790
11
103.673994
21
922.846150
0
LINE
8
1
10
103.673994
20
922.846150
11
103.737634
21
922.819790
0
LINE
8
1
10
103.647628
20
922.909840
11
103.647628
21
925.619699
0
LINE
8
1
10
103.647628
20
925.619699
11
92.463652
21
925.619699
0
LINE
8
1
10
92.463652
20
925.619699
11
92.463652
21
922.909840
0
LINE
8
1
10
92.373646
20
922.819790
11
92.437286
21
922.846150
0
LINE
8
1
10
92.437286
20
922.846150
11
92.463646
21
922.909790
0
LINE
8
1
10
92.373641
20
922.819882
11
81.009748
21
922.819882
0
LINE
8
1
10
80.919663
20
922.909790
11
81.009660
21
922.819790
0
LINE
8
1
10
80.919790
20
922.909840
11
80.919790
21
925.619699
0
LINE
8
1
10
80.919790
20
925.619699
11
69.736660
21
925.619699
0
LINE
8
1
10
69.736660
20
925.619699
11
69.736660
21
925.041850
0
LINE
8
1
10
76.042731
20
885.275025
11
76.042731
21
884.740568
0
LINE
8
1
10
76.042731
20
884.740568
11
78.752590
21
884.740568
0
LINE
8
1
10
78.842665
20
884.649839
11
78.752664
21
884.739837
0
LINE
8
1
10
78.842548
20
884.650609
11
78.842548
21
873.934998
0
LINE
8
1
10
78.752664
20
873.844852
11
78.816305
21
873.871212
0
LINE
8
1
10
78.816305
20
873.871212
11
78.842665
21
873.934852
0
LINE
8
1
10
78.752590
20
873.845040
11
76.042731
21
873.845040
0
LINE
8
1
10
76.042731
20
873.845040
11
76.042731
21
863.311990
0
LINE
8
1
10
76.042731
20
863.311990
11
78.752590
21
863.311990
0
LINE
8
1
10
78.842665
20
863.220865
11
78.816305
21
863.284506
0
LINE
8
1
10
78.816305
20
863.284506
11
78.752664
21
863.310866
0
LINE
8
1
10
78.842548
20
863.222032
11
78.842548
21
852.506421
0
LINE
8
1
10
78.752664
20
852.416878
11
78.816305
21
852.443238
0
LINE
8
1
10
78.816305
20
852.443238
11
78.842665
21
852.506878
0
LINE
8
1
10
78.752590
20
852.416462
11
76.042731
21
852.416462
0
LINE
8
1
10
76.042731
20
852.416462
11
76.042731
21
844.592743
0
LINE
8
1
10
75.952667
20
844.501888
11
76.016307
21
844.528248
0
LINE
8
1
10
76.016307
20
844.528248
11
76.042668
21
844.591889
0
LINE
8
1
10
75.952773
20
844.502785
11
68.128789
21
844.502785
0
LINE
8
1
10
68.128789
20
844.502785
11
68.128789
21
841.790809
0
LINE
8
1
10
68.038677
20
841.701893
11
68.128678
21
841.791891
0
LINE
8
1
10
68.038566
20
841.700851
11
57.323748
21
841.700851
0
LINE
8
1
10
57.233692
20
841.791891
11
57.323690
21
841.701893
0
LINE
8
1
10
57.233790
20
841.790809
11
57.233790
21
844.502785
0
LINE
8
1
10
57.233790
20
844.502785
11
46.699683
21
844.502785
0
LINE
8
1
10
46.699683
20
844.502785
11
46.699683
21
841.790809
0
LINE
8
1
10
46.609703
20
841.701893
11
46.699704
21
841.791891
0
LINE
8
1
10
46.609724
20
841.700851
11
35.895700
21
841.700851
0
LINE
8
1
10
35.805718
20
841.791891
11
35.895719
21
841.701893
0
LINE
8
1
10
35.805742
20
841.790809
11
35.805742
21
844.502785
0
LINE
8
1
10
35.805742
20
844.502785
11
25.271635
21
844.502785
0
LINE
8
1
10
25.271635
20
844.502785
11
25.271635
21
841.790809
0
LINE
8
1
10
25.181733
20
841.701893
11
25.271733
21
841.791891
0
LINE
8
1
10
25.181676
20
841.700851
11
14.466859
21
841.700851
0
LINE
8
1
10
14.376746
20
841.791891
11
14.466746
21
841.701893
0
LINE
8
1
10
14.376636
20
841.790809
11
14.376636
21
844.502785
0
LINE
8
1
10
14.376636
20
844.502785
11
3.752835
21
844.502785
0
LINE
8
1
10
3.662760
20
844.591889
11
3.689120
21
844.528249
0
LINE
8
1
10
3.689120
20
844.528249
11
3.752760
21
844.501888
0
LINE
8
1
10
3.662876
20
844.592743
11
3.662876
21
916.791888
0
LINE
8
1
10
3.752760
20
916.881798
11
3.689120
21
916.855438
0
LINE
8
1
10
3.689120
20
916.855438
11
3.662760
21
916.791798
0
LINE
8
1
10
3.752835
20
916.881846
11
4.872815
21
916.881846
0
LINE
8
1
10
4.962758
20
916.791798
11
4.936398
21
916.855438
0
LINE
8
1
10
4.936398
20
916.855438
11
4.872758
21
916.881798
0
LINE
8
1
10
4.962773
20
916.791888
11
4.962773
21
914.081764
0
LINE
8
1
10
4.962773
20
914.081764
11
14.376636
21
914.081764
0
LINE
8
1
10
14.376636
20
914.081764
11
14.376636
21
916.791888
0
LINE
8
1
10
14.466746
20
916.881798
11
14.403106
21
916.855438
0
LINE
8
1
10
14.403106
20
916.855438
11
14.376746
21
916.791798
0
LINE
8
1
10
14.466859
20
916.881846
11
25.181676
21
916.881846
0
LINE
8
1
10
25.271733
20
916.791798
11
25.245373
21
916.855438
0
LINE
8
1
10
25.245373
20
916.855438
11
25.181733
21
916.881798
0
LINE
8
1
10
25.271635
20
916.791888
11
25.271635
21
914.081764
0
LINE
8
1
10
25.271635
20
914.081764
11
35.805742
21
914.081764
0
LINE
8
1
10
35.805742
20
914.081764
11
35.805742
21
916.791888
0
LINE
8
1
10
35.895719
20
916.881798
11
35.832079
21
916.855438
0
LINE
8
1
10
35.832079
20
916.855438
11
35.805718
21
916.791798
0
LINE
8
1
10
35.895700
20
916.881846
11
46.609724
21
916.881846
0
LINE
8
1
10
46.699704
20
916.791798
11
46.673344
21
916.855438
0
LINE
8
1
10
46.673344
20
916.855438
11
46.609703
21
916.881798
0
LINE
8
1
10
46.699683
20
916.791888
11
46.699683
21
914.081764
0
LINE
8
1
10
46.699683
20
914.081764
11
57.233790
21
914.081764
0
LINE
8
1
10
57.233790
20
914.081764
11
57.233790
21
916.791888
0
LINE
8
1
10
57.323690
20
916.881798
11
57.233692
21
916.791798
0
LINE
8
1
10
57.323748
20
916.881846
11
68.038566
21
916.881846
0
LINE
8
1
10
68.128678
20
916.791798
11
68.102318
21
916.855438
0
LINE
8
1
10
68.102318
20
916.855438
11
68.038677
21
916.881798
0
LINE
8
1
10
68.128789
20
916.791888
11
68.128789
21
914.081764
0
LINE
8
1
10
68.128789
20
914.081764
11
75.952773
21
914.081764
0
LINE
8
1
10
76.042668
20
913.991800
11
76.016307
21
914.055441
0
LINE
8
1
10
76.016307
20
914.055441
11
75.952667
21
914.081801
0
LINE
8
1
10
76.042731
20
913.991806
11
76.042731
21
906.166499
0
LINE
8
1
10
76.042731
20
906.166499
11
78.752590
21
906.166499
0
LINE
8
1
10
78.842665
20
906.077811
11
78.816305
21
906.141451
0
LINE
8
1
10
78.816305
20
906.141451
11
78.752664
21
906.167811
0
LINE
8
1
10
78.842548
20
906.076541
11
78.842548
21
895.363575
0
LINE
8
1
10
78.752664
20
895.273826
11
78.842665
21
895.363824
0
LINE
8
1
10
78.752590
20
895.273617
11
76.042731
21
895.273617
0
LINE
8
1
10
76.042731
20
895.273617
11
76.042731
21
885.275025
0
LINE
8
1
10
89.822664
20
789.382214
11
92.262648
21
789.382214
0
LINE
8
1
10
92.262648
20
789.382214
11
92.262648
21
799.200889
0
LINE
8
1
10
92.262648
20
799.200889
11
89.642641
21
799.200889
0
LINE
8
1
10
89.642641
20
799.200889
11
89.642641
21
789.382214
0
LINE
8
1
10
89.642641
20
789.382214
11
89.822664
21
789.382214
0
LINE
8
1
10
92.082652
20
779.201060
11
89.642641
21
779.201060
0
LINE
8
1
10
89.642641
20
779.201060
11
89.642641
21
769.382385
0
LINE
8
1
10
89.642641
20
769.382385
11
92.262648
21
769.382385
0
LINE
8
1
10
92.262648
20
769.382385
11
92.262648
21
779.201060
0
LINE
8
1
10
92.262648
20
779.201060
11
92.082652
21
779.201060
0
LINE
8
1
10
153.542531
20
779.201060
11
153.542531
21
775.959918
0
LINE
8
1
10
153.452571
20
775.868981
11
153.542571
21
775.958966
0
LINE
8
1
10
153.452573
20
775.869960
11
150.742450
21
775.869960
0
LINE
8
1
10
150.742450
20
775.869960
11
150.742450
21
767.715512
0
LINE
8
1
10
150.742450
20
767.715512
11
153.452573
21
767.715512
0
LINE
8
1
10
153.542571
20
767.625977
11
153.516215
21
767.689624
0
LINE
8
1
10
153.516215
20
767.689624
11
153.452571
21
767.715988
0
LINE
8
1
10
153.542531
20
767.625554
11
153.542531
21
762.093123
0
LINE
8
1
10
153.452571
20
762.002001
11
153.542571
21
762.091986
0
LINE
8
1
10
153.452573
20
762.003165
11
142.178692
21
762.003165
0
LINE
8
1
10
142.178692
20
762.003165
11
142.178692
21
759.291189
0
LINE
8
1
10
142.088585
20
759.201998
11
142.178583
21
759.291983
0
LINE
8
1
10
142.088469
20
759.201231
11
130.725608
21
759.201231
0
LINE
8
1
10
130.635599
20
759.291983
11
130.725597
21
759.201998
0
LINE
8
1
10
130.635597
20
759.291189
11
130.635597
21
762.003165
0
LINE
8
1
10
130.635597
20
762.003165
11
119.451620
21
762.003165
0
LINE
8
1
10
119.451620
20
762.003165
11
119.451620
21
759.291189
0
LINE
8
1
10
119.361612
20
759.201998
11
119.451612
21
759.291983
0
LINE
8
1
10
119.361609
20
759.201231
11
107.997629
21
759.201231
0
LINE
8
1
10
107.907626
20
759.291983
11
107.997627
21
759.201998
0
LINE
8
1
10
107.907629
20
759.291189
11
107.907629
21
762.003165
0
LINE
8
1
10
107.907629
20
762.003165
11
96.724655
21
762.003165
0
LINE
8
1
10
96.724655
20
762.003165
11
96.724655
21
759.291189
0
LINE
8
1
10
96.634641
20
759.201998
11
96.724642
21
759.291983
0
LINE
8
1
10
96.634644
20
759.201231
11
85.270645
21
759.201231
0
LINE
8
1
10
85.180655
20
759.291983
11
85.270656
21
759.201998
0
LINE
8
1
10
85.180661
20
759.291189
11
85.180661
21
762.003165
0
LINE
8
1
10
85.180661
20
762.003165
11
73.997769
21
762.003165
0
LINE
8
1
10
73.997769
20
762.003165
11
73.997769
21
759.291189
0
LINE
8
1
10
73.907671
20
759.201998
11
73.997671
21
759.291983
0
LINE
8
1
10
73.907546
20
759.201231
11
62.543706
21
759.201231
0
LINE
8
1
10
62.453685
20
759.291983
11
62.543685
21
759.201998
0
LINE
8
1
10
62.453748
20
759.291189
11
62.453748
21
762.003165
0
LINE
8
1
10
62.453748
20
762.003165
11
51.269825
21
762.003165
0
LINE
8
1
10
51.269825
20
762.003165
11
51.269825
21
759.291189
0
LINE
8
1
10
51.179700
20
759.201998
11
51.269698
21
759.291983
0
LINE
8
1
10
51.179602
20
759.201231
11
39.816821
21
759.201231
0
LINE
8
1
10
39.726714
20
759.291983
11
39.816715
21
759.201998
0
LINE
8
1
10
39.726598
20
759.291189
11
39.726598
21
762.003165
0
LINE
8
1
10
39.726598
20
762.003165
11
28.452716
21
762.003165
0
LINE
8
1
10
28.362729
20
762.091986
11
28.452729
21
762.002001
0
LINE
8
1
10
28.362758
20
762.093123
11
28.362758
21
770.006801
0
LINE
8
1
10
28.452729
20
770.096971
11
28.362729
21
770.006986
0
LINE
8
1
10
28.452716
20
770.096759
11
31.162840
21
770.096759
0
LINE
8
1
10
31.162840
20
770.096759
11
31.162840
21
780.629808
0
LINE
8
1
10
31.162840
20
780.629808
11
28.452716
21
780.629808
0
LINE
8
1
10
28.362729
20
780.720957
11
28.452729
21
780.630972
0
LINE
8
1
10
28.362758
20
780.719766
11
28.362758
21
791.435378
0
LINE
8
1
10
28.452729
20
791.524966
11
28.389085
21
791.498602
0
LINE
8
1
10
28.389085
20
791.498602
11
28.362729
21
791.434955
0
LINE
8
1
10
28.452716
20
791.525336
11
31.162840
21
791.525336
0
LINE
8
1
10
31.162840
20
791.525336
11
31.162840
21
802.061031
0
LINE
8
1
10
31.162840
20
802.061031
11
28.452716
21
802.061031
0
LINE
8
1
10
28.362729
20
802.149931
11
28.452729
21
802.059946
0
LINE
8
1
10
28.362758
20
802.150989
11
28.362758
21
812.863955
0
LINE
8
1
10
28.452729
20
812.953940
11
28.389085
21
812.927576
0
LINE
8
1
10
28.389085
20
812.927576
11
28.362729
21
812.863929
0
LINE
8
1
10
28.452716
20
812.953913
11
31.162840
21
812.953913
0
LINE
8
1
10
31.162840
20
812.953913
11
31.162840
21
823.486963
0
LINE
8
1
10
31.162840
20
823.486963
11
28.452716
21
823.486963
0
LINE
8
1
10
28.362729
20
823.577926
11
28.389085
21
823.514279
0
LINE
8
1
10
28.389085
20
823.514279
11
28.452729
21
823.487915
0
LINE
8
1
10
28.362758
20
823.576921
11
28.362758
21
834.292527
0
LINE
8
1
10
28.486151
20
834.375466
11
28.402271
21
834.366428
0
LINE
8
1
10
28.402271
20
834.366428
11
28.362729
21
834.291903
0
LINE
8
1
10
28.485789
20
834.377194
11
153.485646
21
784.376304
0
LINE
8
1
10
153.542571
20
784.291954
11
153.485993
21
784.375536
0
LINE
8
1
10
153.542531
20
784.291637
11
153.542531
21
779.201060
0
LINE
8
1
10
165.062475
20
779.201060
11
165.062475
21
828.992935
0
LINE
8
1
10
165.152555
20
829.081914
11
165.088911
21
829.055550
0
LINE
8
1
10
165.088911
20
829.055550
11
165.062555
21
828.991903
0
LINE
8
1
10
165.152433
20
829.082893
11
175.062654
21
829.082893
0
LINE
8
1
10
175.062654
20
829.082893
11
175.062654
21
831.792218
0
LINE
8
1
10
175.152544
20
831.881903
11
175.062543
21
831.791905
0
LINE
8
1
10
175.152613
20
831.882176
11
185.152527
21
831.882176
0
LINE
8
1
10
185.242530
20
831.791905
11
185.152530
21
831.881903
0
LINE
8
1
10
185.242485
20
831.792218
11
185.242485
21
829.082893
0
LINE
8
1
10
185.242485
20
829.082893
11
195.062483
21
829.082893
0
LINE
8
1
10
195.062483
20
829.082893
11
195.062483
21
831.792218
0
LINE
8
1
10
195.152518
20
831.881903
11
195.062518
21
831.791905
0
LINE
8
1
10
195.152441
20
831.882176
11
205.152621
21
831.882176
0
LINE
8
1
10
205.242505
20
831.791905
11
205.152504
21
831.881903
0
LINE
8
1
10
205.242579
20
831.792218
11
205.242579
21
829.082893
0
LINE
8
1
10
205.242579
20
829.082893
11
212.352453
21
829.082893
0
LINE
8
1
10
212.442496
20
828.991903
11
212.416139
21
829.055550
0
LINE
8
1
10
212.416139
20
829.055550
11
212.352495
21
829.081914
0
LINE
8
1
10
212.442411
20
828.992935
11
212.442411
21
821.169215
0
LINE
8
1
10
212.442411
20
821.169215
11
215.152535
21
821.169215
0
LINE
8
1
10
215.242493
20
821.077908
11
215.216137
21
821.141555
0
LINE
8
1
10
215.216137
20
821.141555
11
215.152493
21
821.167919
0
LINE
8
1
10
215.242493
20
821.076611
11
215.242493
21
810.363646
0
LINE
8
1
10
215.152493
20
810.273926
11
215.216137
21
810.300290
0
LINE
8
1
10
215.216137
20
810.300290
11
215.242493
21
810.363937
0
LINE
8
1
10
215.152535
20
810.273688
11
212.442411
21
810.273688
0
LINE
8
1
10
212.442411
20
810.273688
11
212.442411
21
799.737992
0
LINE
8
1
10
212.442411
20
799.737992
11
215.152535
21
799.737992
0
LINE
8
1
10
215.242493
20
799.649939
11
215.216137
21
799.713586
0
LINE
8
1
10
215.216137
20
799.713586
11
215.152493
21
799.739950
0
LINE
8
1
10
215.242493
20
799.650680
11
215.242493
21
788.935069
0
LINE
8
1
10
215.152493
20
788.844952
11
215.216137
21
788.871316
0
LINE
8
1
10
215.216137
20
788.871316
11
215.242493
21
788.934963
0
LINE
8
1
10
215.152535
20
788.845110
11
212.442411
21
788.845110
0
LINE
8
1
10
212.442411
20
788.845110
11
212.442411
21
778.312061
0
LINE
8
1
10
212.442411
20
778.312061
11
215.152535
21
778.312061
0
LINE
8
1
10
215.242493
20
778.220965
11
215.216137
21
778.284612
0
LINE
8
1
10
215.216137
20
778.284612
11
215.152493
21
778.310976
0
LINE
8
1
10
215.242493
20
778.222103
11
215.242493
21
767.506491
0
LINE
8
1
10
215.152493
20
767.416983
11
215.216137
21
767.443347
0
LINE
8
1
10
215.216137
20
767.443347
11
215.242493
21
767.506994
0
LINE
8
1
10
215.152535
20
767.416533
11
212.442411
21
767.416533
0
LINE
8
1
10
212.442411
20
767.416533
11
212.442411
21
759.592814
0
LINE
8
1
10
212.352495
20
759.502009
11
212.442496
21
759.591994
0
LINE
8
1
10
212.352453
20
759.502856
11
205.242579
21
759.502856
0
LINE
8
1
10
205.242579
20
759.502856
11
205.242579
21
756.790880
0
LINE
8
1
10
205.152504
20
756.702006
11
205.242505
21
756.791991
0
LINE
8
1
10
205.152621
20
756.700922
11
195.152441
21
756.700922
0
LINE
8
1
10
195.062518
20
756.791991
11
195.152518
21
756.702006
0
LINE
8
1
10
195.062483
20
756.790880
11
195.062483
21
759.502856
0
LINE
8
1
10
195.062483
20
759.502856
11
185.242485
21
759.502856
0
LINE
8
1
10
185.242485
20
759.502856
11
185.242485
21
756.790880
0
LINE
8
1
10
185.152530
20
756.702006
11
185.242530
21
756.791991
0
LINE
8
1
10
185.152527
20
756.700922
11
175.152613
21
756.700922
0
LINE
8
1
10
175.062543
20
756.791991
11
175.152544
21
756.702006
0
LINE
8
1
10
175.062654
20
756.790880
11
175.062654
21
759.502856
0
LINE
8
1
10
175.062654
20
759.502856
11
165.152433
21
759.502856
0
LINE
8
1
10
165.062555
20
759.591994
11
165.152555
21
759.502009
0
LINE
8
1
10
165.062475
20
759.592814
11
165.062475
21
779.201060
 0 
ENDSEC
 0 
EOF